<svg width="24" height="24" viewBox="0 0 24 24" fill="none" xmlns="http://www.w3.org/2000/svg">
<path d="M24 14.5937V23.4666H18.856V15.1879C18.856 13.1082 18.112 11.6889 16.2501 11.6889C14.8287 11.6889 13.9828 12.6454 13.6107 13.5707C13.475 13.9015 13.4401 14.3619 13.4401 14.8249V23.4666H8.29438C8.29438 23.4666 8.36368 9.44522 8.29438 7.99249H13.4396V10.1859C13.4291 10.2023 13.4156 10.22 13.4058 10.2359H13.4396V10.1859C14.1232 9.13302 15.344 7.62897 18.0766 7.62897C21.462 7.62891 24 9.84061 24 14.5937ZM2.91175 0.533203C1.15141 0.533203 0 1.68785 0 3.20624C0 4.69155 1.1181 5.88124 2.84345 5.88124H2.87782C4.67225 5.88124 5.78823 4.69177 5.78823 3.20624C5.75442 1.68785 4.67225 0.533203 2.91175 0.533203ZM0.30561 23.4666H5.44936V7.99249H0.30561V23.4666Z" fill="white"/>
</svg>
