<svg width="24" height="20" viewBox="0 0 24 20" fill="none" xmlns="http://www.w3.org/2000/svg">
<path d="M24 2.55923C23.1166 2.95065 22.1688 3.2161 21.173 3.33461C22.1898 2.7257 22.9682 1.7599 23.3371 0.612607C22.3833 1.17649 21.3305 1.58594 20.2086 1.8079C19.3103 0.849587 18.0326 0.252686 16.6153 0.252686C13.8963 0.252686 11.6917 2.45727 11.6917 5.17476C11.6917 5.56017 11.7352 5.9366 11.8192 6.29657C7.72801 6.09108 4.1002 4.13096 1.67216 1.15249C1.24773 1.87837 1.00628 2.72417 1.00628 3.62704C1.00628 5.33523 1.87612 6.84245 3.19589 7.72425C2.38902 7.69727 1.63016 7.47531 0.965805 7.10637V7.16786C0.965805 9.55241 2.66349 11.5425 4.91455 11.9955C4.50212 12.1064 4.06722 12.1679 3.6173 12.1679C3.29938 12.1679 2.99192 12.1364 2.69047 12.0764C3.31734 14.0336 5.13502 15.4568 7.28863 15.4958C5.60444 16.8156 3.48083 17.5999 1.17428 17.5999C0.776863 17.5999 0.385412 17.5759 0 17.5324C2.1791 18.9317 4.76612 19.7475 7.54659 19.7475C16.6034 19.7475 21.554 12.2459 21.554 5.74017L21.5375 5.1028C22.5048 4.41288 23.3416 3.54606 24 2.55923Z" fill="white"/>
</svg>
