<svg width="13" height="24" viewBox="0 0 13 24" fill="none" xmlns="http://www.w3.org/2000/svg">
<path d="M12.487 0.0049936L9.37474 0C5.87822 0 3.61861 2.31828 3.61861 5.90643V8.62969H0.489373C0.21897 8.62969 0 8.84891 0 9.11932V13.065C0 13.3354 0.219219 13.5544 0.489373 13.5544H3.61861V23.5106C3.61861 23.781 3.83758 24 4.10799 24H8.19075C8.46116 24 8.68013 23.7808 8.68013 23.5106V13.5544H12.3389C12.6093 13.5544 12.8283 13.3354 12.8283 13.065L12.8298 9.11932C12.8298 8.98948 12.7781 8.86514 12.6865 8.77326C12.5949 8.68138 12.47 8.62969 12.3402 8.62969H8.68013V6.32115C8.68013 5.21157 8.94454 4.64829 10.3899 4.64829L12.4865 4.64755C12.7567 4.64755 12.9756 4.42833 12.9756 4.15817V0.494367C12.9756 0.224462 12.7569 0.00549296 12.487 0.0049936Z" fill="white"/>
</svg>
