<svg width="24" height="24" viewBox="0 0 24 24" fill="none" xmlns="http://www.w3.org/2000/svg">
<path d="M23.0939 0.906398C22.4897 0.302041 21.7657 0 20.9222 0H3.07826C2.23447 0 1.51064 0.302151 0.906288 0.906398C0.302041 1.51048 0 2.23442 0 3.07804V20.9218C0 21.7653 0.301987 22.4894 0.906288 23.0935C1.51064 23.6977 2.23464 24 3.07826 24H20.922C21.7653 24 22.4896 23.6977 23.0938 23.0935C23.6981 22.4894 23.9999 21.7653 23.9999 20.9218V3.07804C23.9998 2.23425 23.6981 1.5107 23.0939 0.906398ZM8.61745 8.64832C9.56008 7.737 10.6929 7.28112 12.0159 7.28112C13.349 7.28112 14.487 7.737 15.4298 8.64832C16.3727 9.55981 16.8438 10.6615 16.8438 11.9531C16.8438 13.2446 16.3727 14.3463 15.4298 15.2575C14.487 16.1692 13.3494 16.625 12.0159 16.625C10.693 16.625 9.56025 16.1688 8.61745 15.2575C7.67461 14.3462 7.20324 13.2446 7.20324 11.9531C7.20324 10.6615 7.67461 9.55986 8.61745 8.64832ZM21.2816 20.2814C21.2816 20.5521 21.1875 20.7785 21.0002 20.9609C20.8123 21.1432 20.5887 21.2343 20.3281 21.2343H3.62521C3.35442 21.2343 3.12768 21.1432 2.94555 20.9609C2.76314 20.7789 2.67202 20.5521 2.67202 20.2814V10.1561H4.87508C4.66684 10.8124 4.56269 11.4948 4.56269 12.203C4.56269 14.2034 5.29177 15.9089 6.7501 17.3206C8.20858 18.7318 9.96375 19.4377 12.0158 19.4377C13.37 19.4377 14.6199 19.1147 15.7661 18.4689C16.912 17.8227 17.8176 16.9453 18.4848 15.8359C19.1515 14.7264 19.4849 13.5154 19.4849 12.203C19.4849 11.4949 19.3803 10.8126 19.1721 10.1561H21.2817V20.2815H21.2816V20.2814ZM21.2816 6.32793C21.2816 6.63002 21.1774 6.88527 20.9687 7.09357C20.7605 7.30202 20.5054 7.40611 20.2032 7.40611H17.4845C17.1826 7.40611 16.9271 7.30197 16.7189 7.09357C16.5106 6.88527 16.4065 6.63002 16.4065 6.32793V3.75004C16.4065 3.45834 16.5106 3.20578 16.7189 2.99217C16.9272 2.77868 17.1826 2.6718 17.4845 2.6718H20.2032C20.5054 2.6718 20.7606 2.77863 20.9687 2.99217C21.1774 3.20578 21.2816 3.45834 21.2816 3.75004V6.32793Z" fill="white"/>
</svg>
