<svg width="154" height="32" viewBox="0 0 154 32" fill="none" xmlns="http://www.w3.org/2000/svg">
<path d="M53.2985 0H46.213V9.10158C44.7384 7.36795 43.1199 6.60948 40.9259 6.60948C36.1783 6.60948 33.0852 10.4018 33.0852 16.2528C33.0852 22.2844 36.3222 26.1851 41.3216 26.1851C43.5875 26.1851 45.17 25.4266 46.5008 23.693V25.7156H53.2985V0ZM43.3357 12.0632C45.3498 12.0632 46.4648 13.5801 46.4648 16.3251C46.4648 19.0339 45.3498 20.5147 43.3357 20.5147C41.2856 20.5147 40.2426 19.1061 40.2426 16.3612C40.2426 13.544 41.3216 12.0632 43.3357 12.0632Z" fill="white"/>
<path d="M76.5127 20.1174H69.8589C69.1396 21.237 68.2764 21.6704 66.8737 21.6704C64.6797 21.6704 63.3489 20.3341 63.241 17.9503H76.9084V17.4086C76.9084 10.8352 72.9161 6.60948 66.6579 6.60948C60.6874 6.60948 56.4074 10.7991 56.4074 16.614C56.4074 22.8262 61.119 26.2573 66.9096 26.2573C70.9379 26.2573 75.3618 24.307 76.5127 20.1174ZM69.9668 14.3747H63.277C63.6367 12.2438 64.7876 11.1964 66.6938 11.1964C68.7799 11.1964 69.787 12.4605 69.9668 14.3747Z" fill="white"/>
<path d="M97.1174 12.5327C96.7218 7.65689 92.6935 6.53725 88.3056 6.53725C82.443 6.53725 79.2779 8.59594 79.2779 12.4244C79.2779 17.0113 83.558 17.6614 87.0467 18.4199C89.6004 18.9977 90.6794 19.07 90.6794 20.2257C90.6794 21.1287 89.8521 21.7065 88.4495 21.7065C86.6152 21.7065 85.7879 21.0564 85.6081 19.5034H78.8823C79.3139 24.7043 83.522 26.1851 88.3056 26.1851C94.1682 26.1851 97.6569 23.7652 97.6569 19.6479C97.6569 15.2777 93.8445 14.3386 90.3197 13.6885C89.4565 13.544 86.2195 13.3634 86.2195 11.9187C86.2195 11.1603 86.9029 10.7991 88.1617 10.7991C89.8162 10.7991 90.4276 11.1964 90.6794 12.5327H97.1174Z" fill="white"/>
<path d="M107.807 0H100.686V4.9842H107.807V0ZM107.807 7.07901H100.686V25.7156H107.807V7.07901Z" fill="white"/>
<path d="M130.806 7.07901H123.936V9.31828C122.677 7.40406 121.238 6.53725 118.757 6.53725C113.937 6.53725 110.844 10.0406 110.844 15.5305C110.844 21.0564 113.793 24.3792 118.685 24.3792C120.915 24.3792 122.569 23.693 123.936 22.0316V24.1625C123.936 26.0406 123.648 27.5214 121.166 27.5214C119.584 27.5214 118.901 27.088 118.541 25.86H111.455C112.103 30.9165 116.419 32 120.951 32C127.137 32 130.806 29.833 130.806 23.079V7.07901ZM120.879 11.8465C122.929 11.8465 124.08 13.219 124.08 15.6027C124.08 18.0226 122.965 19.395 120.915 19.395C118.901 19.395 117.75 18.0226 117.75 15.6027C117.75 13.219 118.865 11.8465 120.879 11.8465Z" fill="white"/>
<path d="M141.412 7.07901H134.578V25.7156H141.699V15.4582C141.699 13.6885 142.419 12.316 144.433 12.316C146.087 12.316 146.842 13.2551 146.842 15.2777V25.7156H154V13.9413C154 9.89616 152.309 6.57336 147.31 6.57336C144.792 6.57336 142.958 7.4763 141.412 9.39052V7.07901Z" fill="white"/>
<path fill-rule="evenodd" clip-rule="evenodd" d="M2.99731 1.63745H0V25.7157H8.99174V15.6831H12.988V25.7157H16.9844V15.6831H20.9807V25.7157H23.9778V1.63745H6.99361V11.67H2.99731V1.63745Z" fill="#DA353B"/>
</svg>
