<svg width="0" height="0" class="hidden">
  <symbol fill="none" xmlns="http://www.w3.org/2000/svg" viewBox="0 0 24 20" id="Group">
    <path d="M24 2.55923C23.1166 2.95065 22.1688 3.2161 21.173 3.33461C22.1898 2.7257 22.9682 1.7599 23.3371 0.612607C22.3833 1.17649 21.3305 1.58594 20.2086 1.8079C19.3103 0.849587 18.0326 0.252686 16.6153 0.252686C13.8963 0.252686 11.6917 2.45727 11.6917 5.17476C11.6917 5.56017 11.7352 5.9366 11.8192 6.29657C7.72801 6.09108 4.1002 4.13096 1.67216 1.15249C1.24773 1.87837 1.00628 2.72417 1.00628 3.62704C1.00628 5.33523 1.87612 6.84245 3.19589 7.72425C2.38902 7.69727 1.63016 7.47531 0.965805 7.10637V7.16786C0.965805 9.55241 2.66349 11.5425 4.91455 11.9955C4.50212 12.1064 4.06722 12.1679 3.6173 12.1679C3.29938 12.1679 2.99192 12.1364 2.69047 12.0764C3.31734 14.0336 5.13502 15.4568 7.28863 15.4958C5.60444 16.8156 3.48083 17.5999 1.17428 17.5999C0.776863 17.5999 0.385412 17.5759 0 17.5324C2.1791 18.9317 4.76612 19.7475 7.54659 19.7475C16.6034 19.7475 21.554 12.2459 21.554 5.74017L21.5375 5.1028C22.5048 4.41288 23.3416 3.54606 24 2.55923Z" fill="white"></path>
  </symbol>
  <symbol fill="none" xmlns="http://www.w3.org/2000/svg" viewBox="0 0 24 24" id="Group-1">
    <path d="M24 14.5937V23.4666H18.856V15.1879C18.856 13.1082 18.112 11.6889 16.2501 11.6889C14.8287 11.6889 13.9828 12.6454 13.6107 13.5707C13.475 13.9015 13.4401 14.3619 13.4401 14.8249V23.4666H8.29438C8.29438 23.4666 8.36368 9.44522 8.29438 7.99249H13.4396V10.1859C13.4291 10.2023 13.4156 10.22 13.4058 10.2359H13.4396V10.1859C14.1232 9.13302 15.344 7.62897 18.0766 7.62897C21.462 7.62891 24 9.84061 24 14.5937ZM2.91175 0.533203C1.15141 0.533203 0 1.68785 0 3.20624C0 4.69155 1.1181 5.88124 2.84345 5.88124H2.87782C4.67225 5.88124 5.78823 4.69177 5.78823 3.20624C5.75442 1.68785 4.67225 0.533203 2.91175 0.533203ZM0.30561 23.4666H5.44936V7.99249H0.30561V23.4666Z" fill="white"></path>
  </symbol>
  <symbol fill="none" xmlns="http://www.w3.org/2000/svg" viewBox="0 0 13 24" id="Group-2">
    <path d="M12.487 0.0049936L9.37474 0C5.87822 0 3.61861 2.31828 3.61861 5.90643V8.62969H0.489373C0.21897 8.62969 0 8.84891 0 9.11932V13.065C0 13.3354 0.219219 13.5544 0.489373 13.5544H3.61861V23.5106C3.61861 23.781 3.83758 24 4.10799 24H8.19075C8.46116 24 8.68013 23.7808 8.68013 23.5106V13.5544H12.3389C12.6093 13.5544 12.8283 13.3354 12.8283 13.065L12.8298 9.11932C12.8298 8.98948 12.7781 8.86514 12.6865 8.77326C12.5949 8.68138 12.47 8.62969 12.3402 8.62969H8.68013V6.32115C8.68013 5.21157 8.94454 4.64829 10.3899 4.64829L12.4865 4.64755C12.7567 4.64755 12.9756 4.42833 12.9756 4.15817V0.494367C12.9756 0.224462 12.7569 0.00549296 12.487 0.0049936Z" fill="white"></path>
  </symbol>
  <symbol fill="none" xmlns="http://www.w3.org/2000/svg" viewBox="0 0 24 24" id="Inst_logo">
    <path d="M23.0939 0.906398C22.4897 0.302041 21.7657 0 20.9222 0H3.07826C2.23447 0 1.51064 0.302151 0.906288 0.906398C0.302041 1.51048 0 2.23442 0 3.07804V20.9218C0 21.7653 0.301987 22.4894 0.906288 23.0935C1.51064 23.6977 2.23464 24 3.07826 24H20.922C21.7653 24 22.4896 23.6977 23.0938 23.0935C23.6981 22.4894 23.9999 21.7653 23.9999 20.9218V3.07804C23.9998 2.23425 23.6981 1.5107 23.0939 0.906398ZM8.61745 8.64832C9.56008 7.737 10.6929 7.28112 12.0159 7.28112C13.349 7.28112 14.487 7.737 15.4298 8.64832C16.3727 9.55981 16.8438 10.6615 16.8438 11.9531C16.8438 13.2446 16.3727 14.3463 15.4298 15.2575C14.487 16.1692 13.3494 16.625 12.0159 16.625C10.693 16.625 9.56025 16.1688 8.61745 15.2575C7.67461 14.3462 7.20324 13.2446 7.20324 11.9531C7.20324 10.6615 7.67461 9.55986 8.61745 8.64832ZM21.2816 20.2814C21.2816 20.5521 21.1875 20.7785 21.0002 20.9609C20.8123 21.1432 20.5887 21.2343 20.3281 21.2343H3.62521C3.35442 21.2343 3.12768 21.1432 2.94555 20.9609C2.76314 20.7789 2.67202 20.5521 2.67202 20.2814V10.1561H4.87508C4.66684 10.8124 4.56269 11.4948 4.56269 12.203C4.56269 14.2034 5.29177 15.9089 6.7501 17.3206C8.20858 18.7318 9.96375 19.4377 12.0158 19.4377C13.37 19.4377 14.6199 19.1147 15.7661 18.4689C16.912 17.8227 17.8176 16.9453 18.4848 15.8359C19.1515 14.7264 19.4849 13.5154 19.4849 12.203C19.4849 11.4949 19.3803 10.8126 19.1721 10.1561H21.2817V20.2815H21.2816V20.2814ZM21.2816 6.32793C21.2816 6.63002 21.1774 6.88527 20.9687 7.09357C20.7605 7.30202 20.5054 7.40611 20.2032 7.40611H17.4845C17.1826 7.40611 16.9271 7.30197 16.7189 7.09357C16.5106 6.88527 16.4065 6.63002 16.4065 6.32793V3.75004C16.4065 3.45834 16.5106 3.20578 16.7189 2.99217C16.9272 2.77868 17.1826 2.6718 17.4845 2.6718H20.2032C20.5054 2.6718 20.7606 2.77863 20.9687 2.99217C21.1774 3.20578 21.2816 3.45834 21.2816 3.75004V6.32793Z" fill="white"></path>
  </symbol>
  <symbol fill="none" xmlns="http://www.w3.org/2000/svg" viewBox="0 0 24 17" id="XMLID 823">
    <path d="M23.0645 1.44991C22.1982 0.420077 20.5987 0 17.5441 0H6.45569C3.33112 0 1.70454 0.447175 0.841471 1.54359C0 2.61259 0 4.18769 0 6.36767V10.5227C0 14.746 0.9984 16.8903 6.45569 16.8903H17.5442C20.1931 16.8903 21.661 16.5196 22.6106 15.6108C23.5845 14.6788 24 13.1571 24 10.5227V6.36767C24 4.0687 23.9349 2.48431 23.0645 1.44991ZM15.4081 9.01881L10.3729 11.6504C10.2603 11.7092 10.1372 11.7384 10.0143 11.7384C9.87507 11.7384 9.73618 11.7009 9.61316 11.6265C9.38152 11.4861 9.24008 11.235 9.24008 10.9642V5.71796C9.24008 5.44761 9.38113 5.19677 9.61231 5.05634C9.84356 4.9159 10.1312 4.9063 10.3711 5.03094L15.4063 7.64555C15.6625 7.77856 15.8234 8.04302 15.8237 8.33156C15.8241 8.62034 15.6639 8.88519 15.4081 9.01881Z" fill="white"></path>
  </symbol>
</svg>